<?xml version="1.0" encoding="utf-8"?>
<!-- Generator: Adobe Illustrator 16.0.0, SVG Export Plug-In . SVG Version: 6.00 Build 0)  -->
<!DOCTYPE svg PUBLIC "-//W3C//DTD SVG 1.1//EN" "http://www.w3.org/Graphics/SVG/1.1/DTD/svg11.dtd">
<svg version="1.1" id="Layer_1" xmlns="http://www.w3.org/2000/svg" xmlns:xlink="http://www.w3.org/1999/xlink" x="0px" y="0px"
	 width="38px" height="30px" viewBox="0 0 38 30" enable-background="new 0 0 38 30" xml:space="preserve">
<g>
	<path d="M19.28,27.351c1.359,0,2.576-0.237,3.649-0.71s1.983-1.13,2.73-1.971c0.746-0.84,1.316-1.83,1.71-2.969
		c0.394-1.141,0.59-2.371,0.59-3.69v-17.5H30v17.5c0,1.56-0.247,3.017-0.74,4.37s-1.203,2.533-2.13,3.539
		c-0.927,1.008-2.053,1.797-3.38,2.371c-1.327,0.572-2.816,0.859-4.47,0.859s-3.144-0.287-4.47-0.859
		c-1.327-0.574-2.454-1.363-3.381-2.371c-0.927-1.006-1.637-2.186-2.13-3.539s-0.739-2.811-0.739-4.37v-17.5h2.06V17.99
		c0,1.32,0.196,2.551,0.59,3.69s0.96,2.13,1.7,2.97s1.646,1.5,2.72,1.98C16.703,27.11,17.92,27.351,19.28,27.351z"/>
</g>
</svg>
